<?xml version="1.0" encoding="UTF-8" ?>
<!DOCTYPE svg PUBLIC "-//W3C//DTD SVG 1.1//EN" "http://www.w3.org/Graphics/SVG/1.1/DTD/svg11.dtd">
<svg width="809pt" height="308pt" viewBox="0 0 809 308" version="1.1" xmlns="http://www.w3.org/2000/svg">
<g id="#6c35354c">
<path fill="#6c3535" opacity="0.30" d=" M 53.41 47.94 C 57.62 44.94 63.02 44.68 68.01 44.35 C 106.66 44.18 145.32 44.59 183.97 44.09 C 193.12 44.24 203.52 42.97 211.16 49.13 C 202.61 44.20 192.53 44.93 183.05 44.98 C 145.01 45.21 106.96 44.98 68.91 45.09 C 63.63 45.15 58.38 46.16 53.41 47.94 Z" />
<path fill="#6c3535" opacity="0.30" d=" M 57.68 61.08 C 62.88 57.02 69.88 58.44 75.99 58.19 C 115.67 57.46 155.37 58.16 195.06 58.22 C 199.98 58.10 205.09 60.45 207.12 65.14 C 204.25 61.91 200.55 59.00 196.00 59.04 C 152.66 58.95 109.32 58.80 65.98 59.02 C 61.97 59.22 57.30 60.86 55.67 64.87 C 54.66 67.44 54.37 70.23 54.25 72.96 C 54.20 126.64 54.29 180.32 54.21 233.99 C 54.32 236.90 54.77 239.78 55.08 242.67 C 53.76 240.00 53.37 237.01 53.39 234.05 C 53.39 180.72 53.40 127.38 53.39 74.04 C 53.38 69.47 53.95 64.21 57.68 61.08 Z" />
<path fill="#6c3535" opacity="0.30" d=" M 207.22 65.34 C 209.54 70.61 208.83 76.46 208.92 82.05 C 208.99 95.27 209.32 108.50 208.78 121.71 C 197.87 121.89 186.94 121.57 176.03 121.94 C 175.96 112.66 176.03 103.37 175.99 94.08 C 147.67 94.07 119.35 94.07 91.03 94.10 C 91.12 117.64 90.99 141.19 91.05 164.73 C 114.30 164.65 137.55 164.57 160.79 164.79 C 160.83 178.14 160.90 191.48 160.76 204.83 C 141.73 204.97 122.69 204.97 103.66 204.85 C 103.49 196.95 103.62 189.05 103.58 181.15 C 99.42 181.09 95.27 181.08 91.11 181.09 C 91.00 193.42 91.43 205.77 90.89 218.10 C 90.56 216.76 90.34 215.39 90.39 214.01 C 90.54 202.86 90.23 191.71 90.56 180.56 C 95.14 180.43 99.72 180.46 104.30 180.61 C 104.49 188.41 104.32 196.21 104.45 204.00 C 122.96 203.99 141.47 204.01 159.98 203.99 C 160.02 191.20 159.99 178.40 160.00 165.61 C 136.78 165.54 113.55 165.51 90.33 165.53 C 89.74 160.71 90.05 155.86 90.00 151.02 C 90.18 131.79 89.63 112.54 90.27 93.33 C 118.99 93.15 147.71 93.11 176.42 93.35 C 176.65 102.59 176.42 111.84 176.55 121.09 C 187.02 120.78 197.50 121.07 207.97 120.92 C 208.24 105.62 207.96 90.32 207.96 75.02 C 207.88 71.78 207.43 68.57 207.22 65.34 Z" />
<path fill="#6c3535" opacity="0.30" d=" M 691.01 94.10 C 696.65 93.94 702.29 93.89 707.93 94.15 C 708.11 113.05 708.14 131.97 707.90 150.87 C 703.95 151.13 700.00 151.12 696.06 150.90 C 695.59 138.19 696.15 125.46 695.77 112.74 C 693.16 117.55 692.07 122.99 690.02 128.05 C 687.41 134.76 686.15 141.99 682.87 148.44 C 685.77 137.23 690.16 126.50 693.48 115.42 C 694.49 112.38 695.20 109.14 697.23 106.57 C 696.69 121.11 696.68 135.66 696.72 150.22 C 700.19 150.22 703.66 150.22 707.13 150.22 C 707.12 131.74 707.17 113.26 707.13 94.79 C 702.09 94.91 697.05 94.52 692.03 94.92 C 690.56 96.90 689.96 99.37 689.11 101.65 C 689.34 99.04 690.11 96.54 691.01 94.10 Z" />
<path fill="#6c3535" opacity="0.30" d=" M 750.92 99.92 L 751.83 100.00 L 752.34 100.97 L 751.91 101.79 C 751.66 101.32 751.17 100.39 750.92 99.92 Z" />
<path fill="#6c3535" opacity="0.30" d=" M 688.17 102.24 L 689.06 102.22 C 688.79 102.66 688.24 103.55 687.97 103.99 L 687.61 103.14 L 688.17 102.24 Z" />
<path fill="#6c3535" opacity="0.30" d=" M 277.90 104.89 C 278.13 104.42 278.60 103.47 278.84 102.99 L 279.29 103.81 L 278.80 104.78 L 277.90 104.89 Z" />
<path fill="#6c3535" opacity="0.30" d=" M 462.87 103.46 C 465.19 105.17 466.58 107.76 466.94 110.61 C 465.67 108.17 464.32 105.79 462.87 103.46 Z" />
<path fill="#6c3535" opacity="0.30" d=" M 376.15 105.18 L 377.06 105.06 C 376.83 105.54 376.39 106.50 376.16 106.98 L 375.69 106.17 L 376.15 105.18 Z" />
<path fill="#6c3535" opacity="0.30" d=" M 687.11 105.19 L 687.99 105.12 C 687.74 105.57 687.22 106.47 686.97 106.92 C 687.00 106.49 687.07 105.62 687.11 105.19 Z" />
<path fill="#6c3535" opacity="0.30" d=" M 730.16 105.28 L 731.07 105.13 C 730.86 105.62 730.43 106.59 730.22 107.07 L 729.72 106.28 L 730.16 105.28 Z" />
<path fill="#6c3535" opacity="0.30" d=" M 752.92 105.15 L 753.82 105.32 L 754.23 106.33 L 753.72 107.11 C 753.52 106.62 753.12 105.64 752.92 105.15 Z" />
<path fill="#6c3535" opacity="0.30" d=" M 666.94 106.11 L 667.83 106.13 L 668.41 107.04 L 668.06 107.88 C 667.78 107.44 667.22 106.55 666.94 106.11 Z" />
<path fill="#6c3535" opacity="0.30" d=" M 104.25 107.09 C 123.51 107.34 142.77 107.09 162.04 107.25 C 162.21 116.46 162.06 125.68 162.10 134.90 C 182.10 135.01 202.10 134.88 222.09 134.96 C 220.85 136.44 218.76 135.93 217.08 136.07 C 198.55 135.63 180.01 136.33 161.49 135.69 C 161.31 126.47 161.47 117.26 161.34 108.05 C 142.58 108.02 123.82 108.00 105.06 108.03 C 104.95 122.10 105.10 136.16 105.06 150.22 C 128.31 150.45 151.56 150.31 174.81 150.32 C 175.54 171.20 174.99 192.14 175.12 213.04 C 175.15 214.91 175.09 216.78 174.90 218.64 L 174.59 217.74 C 173.91 195.58 174.62 173.36 174.25 151.17 C 150.91 151.26 127.57 151.25 104.23 151.13 C 104.14 136.45 104.08 121.77 104.25 107.09 Z" />
<path fill="#6c3535" opacity="0.30" d=" M 686.06 108.22 L 686.95 108.04 C 686.76 108.53 686.37 109.52 686.18 110.01 L 685.66 109.23 L 686.06 108.22 Z" />
<path fill="#6c3535" opacity="0.30" d=" M 668.06 109.08 L 668.95 109.29 L 669.31 110.32 L 668.77 111.08 C 668.59 110.58 668.24 109.58 668.06 109.08 Z" />
<path fill="#6c3535" opacity="0.30" d=" M 389.85 111.16 L 390.74 111.25 L 391.26 112.18 L 390.86 113.00 C 390.60 112.54 390.10 111.62 389.85 111.16 Z" />
<path fill="#6c3535" opacity="0.30" d=" M 466.96 111.17 L 467.85 111.33 L 468.27 112.33 L 467.77 113.12 C 467.56 112.63 467.16 111.65 466.96 111.17 Z" />
<path fill="#6c3535" opacity="0.30" d=" M 573.95 111.13 L 574.86 111.25 L 575.32 112.24 L 574.84 113.05 C 574.62 112.57 574.18 111.61 573.95 111.13 Z" />
<path fill="#6c3535" opacity="0.30" d=" M 739.23 111.35 L 740.13 111.26 C 739.88 111.72 739.38 112.64 739.13 113.10 L 738.72 112.29 L 739.23 111.35 Z" />
<path fill="#6c3535" opacity="0.30" d=" M 743.89 110.86 L 744.78 111.00 L 745.22 112.00 L 744.75 112.81 C 744.53 112.32 744.10 111.34 743.89 110.86 Z" />
<path fill="#6c3535" opacity="0.30" d=" M 311.07 114.29 L 311.95 114.03 C 311.79 114.54 311.47 115.55 311.31 116.06 L 310.74 115.33 L 311.07 114.29 Z" />
<path fill="#6c3535" opacity="0.30" d=" M 354.97 115.91 C 355.16 115.42 355.54 114.43 355.73 113.93 L 356.26 114.70 L 355.87 115.72 L 354.97 115.91 Z" />
<path fill="#6c3535" opacity="0.30" d=" M 384.21 114.32 L 385.10 114.25 C 384.85 114.71 384.35 115.62 384.10 116.08 L 383.69 115.26 L 384.21 114.32 Z" />
<path fill="#6c3535" opacity="0.30" d=" M 390.86 114.17 L 391.75 114.33 L 392.18 115.33 L 391.70 116.11 C 391.49 115.63 391.07 114.66 390.86 114.17 Z" />
<path fill="#6c3535" opacity="0.30" d=" M 738.26 114.37 L 739.14 114.28 C 738.90 114.74 738.40 115.66 738.15 116.11 L 737.75 115.30 L 738.26 114.37 Z" />
<path fill="#6c3535" opacity="0.30" d=" M 383.23 117.31 L 384.12 117.21 C 383.88 117.67 383.39 118.60 383.15 119.06 L 382.74 118.25 L 383.23 117.31 Z" />
<path fill="#6c3535" opacity="0.30" d=" M 402.97 117.09 L 403.88 117.24 L 404.31 118.24 L 403.81 119.04 C 403.60 118.55 403.18 117.58 402.97 117.09 Z" />
<path fill="#6c3535" opacity="0.30" d=" M 737.28 117.40 L 738.17 117.22 C 737.97 117.71 737.57 118.68 737.37 119.17 L 736.87 118.39 L 737.28 117.40 Z" />
<path fill="#6c3535" opacity="0.30" d=" M 382.24 120.33 L 383.13 120.16 C 382.93 120.65 382.52 121.63 382.32 122.12 L 381.82 121.34 L 382.24 120.33 Z" />
<path fill="#6c3535" opacity="0.30" d=" M 565.88 120.26 L 566.78 120.40 L 567.22 121.40 L 566.73 122.20 C 566.52 121.71 566.10 120.75 565.88 120.26 Z" />
<path fill="#6c3535" opacity="0.30" d=" M 319.06 123.93 C 319.23 123.43 319.56 122.42 319.73 121.92 L 320.29 122.66 L 319.95 123.69 L 319.06 123.93 Z" />
<path fill="#6c3535" opacity="0.30" d=" M 325.29 121.91 C 325.48 122.40 325.87 123.39 326.06 123.88 L 325.16 123.69 L 324.77 122.68 L 325.29 121.91 Z" />
<path fill="#6c3535" opacity="0.30" d=" M 681.22 123.30 L 682.12 123.22 C 681.87 123.68 681.37 124.60 681.12 125.06 L 680.70 124.24 L 681.22 123.30 Z" />
<path fill="#6c3535" opacity="0.30" d=" M 723.15 125.18 L 724.06 125.08 C 723.82 125.55 723.36 126.50 723.12 126.97 L 722.67 126.15 L 723.15 125.18 Z" />
<path fill="#6c3535" opacity="0.30" d=" M 680.20 126.23 L 681.10 126.13 C 680.85 126.60 680.36 127.52 680.12 127.98 L 679.70 127.17 L 680.20 126.23 Z" />
<path fill="#6c3535" opacity="0.30" d=" M 673.90 128.23 L 674.79 128.40 L 675.21 129.41 L 674.69 130.19 C 674.49 129.70 674.10 128.72 673.90 128.23 Z" />
<path fill="#6c3535" opacity="0.30" d=" M 679.18 129.27 L 680.08 129.11 C 679.87 129.60 679.46 130.58 679.25 131.06 L 678.75 130.28 L 679.18 129.27 Z" />
<path fill="#6c3535" opacity="0.30" d=" M 467.04 133.13 C 467.23 132.63 467.60 131.63 467.79 131.13 L 468.31 131.90 L 467.93 132.92 L 467.04 133.13 Z" />
<path fill="#6c3535" opacity="0.30" d=" M 666.13 134.10 C 666.32 134.60 666.71 135.59 666.90 136.08 L 666.01 135.89 L 665.61 134.87 L 666.13 134.10 Z" />
<path fill="#6c3535" opacity="0.30" d=" M 538.16 136.31 L 539.07 136.16 C 538.86 136.64 538.43 137.61 538.22 138.10 L 537.72 137.31 L 538.16 136.31 Z" />
<path fill="#6c3535" opacity="0.30" d=" M 764.91 139.13 L 765.82 139.27 L 766.27 140.26 L 765.78 141.06 C 765.57 140.58 765.13 139.61 764.91 139.13 Z" />
<path fill="#6c3535" opacity="0.30" d=" M 729.97 141.89 C 730.13 141.38 730.46 140.37 730.63 139.87 L 731.21 140.64 L 730.86 141.68 L 729.97 141.89 Z" />
<path fill="#6c3535" opacity="0.30" d=" M 411.93 142.11 L 412.83 142.24 L 413.29 143.23 L 412.82 144.03 C 412.60 143.55 412.15 142.59 411.93 142.11 Z" />
<path fill="#6c3535" opacity="0.30" d=" M 717.15 142.22 L 718.06 142.10 C 717.83 142.58 717.37 143.53 717.14 144.01 L 716.68 143.20 L 717.15 142.22 Z" />
<path fill="#6c3535" opacity="0.30" d=" M 374.95 144.91 C 375.15 144.42 375.55 143.44 375.75 142.95 L 376.26 143.74 L 375.84 144.74 L 374.95 144.91 Z" />
<path fill="#6c3535" opacity="0.30" d=" M 346.98 147.01 C 347.16 146.51 347.52 145.51 347.70 145.01 L 348.25 145.77 L 347.88 146.80 L 346.98 147.01 Z" />
<path fill="#6c3535" opacity="0.30" d=" M 361.22 147.25 L 362.12 147.15 C 361.90 147.63 361.46 148.59 361.24 149.07 L 360.76 148.24 L 361.22 147.25 Z" />
<path fill="#6c3535" opacity="0.30" d=" M 546.86 148.82 C 547.08 148.34 547.51 147.37 547.73 146.89 L 548.21 147.68 L 547.77 148.67 L 546.86 148.82 Z" />
<path fill="#6c3535" opacity="0.30" d=" M 574.28 146.81 C 574.49 147.30 574.91 148.28 575.12 148.77 L 574.20 148.60 L 573.77 147.60 L 574.28 146.81 Z" />
<path fill="#6c3535" opacity="0.30" d=" M 767.85 147.17 L 768.74 147.33 L 769.15 148.35 L 768.62 149.16 C 768.43 148.66 768.04 147.67 767.85 147.17 Z" />
<path fill="#6c3535" opacity="0.30" d=" M 450.96 148.83 C 451.43 148.61 452.39 148.15 452.87 147.93 L 452.74 148.83 L 451.76 149.30 L 450.96 148.83 Z" />
<path fill="#6c3535" opacity="0.30" d=" M 261.43 173.83 C 265.59 172.46 270.27 172.56 274.42 173.96 C 270.11 173.40 265.75 173.35 261.43 173.83 Z" />
<path fill="#6c3535" opacity="0.30" d=" M 303.71 174.01 C 308.07 172.49 313.06 172.45 317.46 173.85 C 312.88 173.29 308.26 173.38 303.71 174.01 Z" />
<path fill="#6c3535" opacity="0.30" d=" M 406.44 173.84 C 410.35 172.53 414.73 172.54 418.64 173.83 C 414.58 173.40 410.49 173.40 406.44 173.84 Z" />
<path fill="#6c3535" opacity="0.30" d=" M 679.51 174.00 C 683.55 172.40 688.30 172.52 692.38 173.94 C 688.11 173.34 683.77 173.34 679.51 174.00 Z" />
<path fill="#6c3535" opacity="0.30" d=" M 259.06 174.03 L 260.05 173.58 L 260.84 174.05 C 260.36 174.27 259.39 174.71 258.90 174.94 L 259.06 174.03 Z" />
<path fill="#6c3535" opacity="0.30" d=" M 274.96 174.18 L 275.72 173.67 L 276.72 174.07 L 276.91 174.96 C 276.42 174.76 275.44 174.37 274.96 174.18 Z" />
<path fill="#6c3535" opacity="0.30" d=" M 287.94 191.97 C 288.96 183.65 294.87 175.28 303.59 174.04 C 298.47 175.98 293.46 179.09 291.03 184.20 C 287.08 192.32 287.85 201.90 289.89 210.45 C 286.93 204.84 287.26 198.09 287.94 191.97 Z" />
<path fill="#6c3535" opacity="0.30" d=" M 317.57 173.88 C 325.75 174.89 332.49 182.26 333.10 190.42 C 331.67 186.56 330.27 182.52 327.38 179.49 C 324.71 176.72 321.06 175.28 317.57 173.88 Z" />
<path fill="#6c3535" opacity="0.30" d=" M 343.38 178.97 C 343.45 177.24 343.15 175.35 344.15 173.82 C 344.37 189.90 344.24 205.99 344.22 222.07 C 346.94 222.08 349.66 222.09 352.38 222.10 C 352.39 209.90 352.39 197.70 352.25 185.50 C 354.08 187.88 355.61 190.47 356.94 193.17 C 354.81 192.15 354.41 189.58 353.35 187.72 C 352.88 199.35 353.52 211.00 352.94 222.63 C 349.76 222.72 346.59 222.71 343.42 222.57 C 343.32 208.03 343.42 193.50 343.38 178.97 Z" />
<path fill="#6c3535" opacity="0.30" d=" M 376.99 174.01 C 380.32 173.98 383.66 173.98 387.00 174.00 C 386.92 190.19 387.18 206.40 386.88 222.60 C 382.41 222.59 377.91 223.02 373.46 222.49 C 371.16 219.51 369.28 216.17 368.07 212.60 C 370.07 215.71 371.97 218.88 373.76 222.11 C 377.95 222.11 382.14 222.10 386.33 222.08 C 386.34 206.13 386.33 190.18 386.33 174.23 C 383.46 174.20 380.59 174.19 377.72 174.21 C 377.66 186.33 377.74 198.46 377.81 210.58 C 377.32 209.86 376.85 209.13 376.38 208.41 C 377.51 204.35 376.76 200.14 376.85 196.01 C 376.87 188.67 376.77 181.34 376.99 174.01 Z" />
<path fill="#6c3535" opacity="0.30" d=" M 404.25 174.02 L 405.24 173.60 L 406.02 174.10 C 405.53 174.30 404.56 174.70 404.08 174.90 L 404.25 174.02 Z" />
<path fill="#6c3535" opacity="0.30" d=" M 419.87 174.22 L 420.66 173.74 L 421.65 174.18 L 421.80 175.08 C 421.32 174.86 420.35 174.43 419.87 174.22 Z" />
<path fill="#6c3535" opacity="0.30" d=" M 435.03 174.01 C 438.68 173.98 442.34 173.98 445.99 174.00 C 446.09 185.50 446.51 197.05 445.82 208.53 C 444.64 197.15 445.64 185.64 445.29 174.21 C 442.10 174.19 438.91 174.19 435.73 174.23 C 435.74 184.50 435.69 194.77 435.72 205.03 C 435.64 209.09 436.99 212.98 438.75 216.57 C 435.53 213.25 434.91 208.43 434.91 204.02 C 434.93 194.01 434.86 184.01 435.03 174.01 Z" />
<path fill="#6c3535" opacity="0.30" d=" M 464.35 174.07 C 468.01 174.19 471.85 173.41 475.41 174.30 C 475.11 185.22 475.41 196.18 475.23 207.12 C 475.28 208.65 474.72 210.08 474.11 211.46 C 475.67 201.38 474.76 191.18 475.06 181.04 C 475.01 179.09 475.31 177.07 474.74 175.18 C 472.05 173.21 468.34 174.52 465.24 174.22 C 465.22 183.82 465.25 193.43 465.24 203.03 C 465.14 206.89 464.63 211.66 460.86 213.72 C 455.64 216.11 447.44 215.27 445.87 208.71 C 447.54 210.76 449.04 213.56 451.96 213.90 C 455.33 214.32 459.33 214.54 462.00 212.04 C 464.22 209.60 464.21 206.07 464.33 202.97 C 464.30 193.34 464.28 183.70 464.35 174.07 Z" />
<path fill="#6c3535" opacity="0.30" d=" M 486.46 179.01 C 486.45 177.27 486.44 175.48 487.16 173.86 C 487.46 189.92 487.26 205.99 487.26 222.05 C 496.94 222.15 506.62 222.10 516.31 222.08 C 516.30 219.46 516.29 216.84 516.29 214.22 C 509.95 214.14 503.62 214.30 497.29 214.18 C 497.26 213.95 497.21 213.49 497.18 213.26 C 503.72 213.42 510.26 213.29 516.80 213.37 C 517.15 216.44 517.21 219.54 516.87 222.62 C 506.74 222.71 496.61 222.86 486.50 222.53 C 486.49 208.02 486.52 193.51 486.46 179.01 Z" />
<path fill="#6c3535" opacity="0.30" d=" M 519.88 173.99 C 532.25 173.98 544.63 173.98 557.01 173.99 C 557.02 176.98 557.01 179.96 556.93 182.94 C 552.67 183.16 548.41 183.19 544.15 183.12 C 543.86 196.28 544.46 209.46 543.85 222.62 C 540.26 222.72 536.68 222.74 533.10 222.63 C 532.47 209.48 533.09 196.29 532.80 183.13 C 528.46 183.23 524.12 183.21 519.79 182.92 C 519.76 179.94 519.80 176.97 519.88 173.99 M 520.60 174.24 C 520.60 176.94 520.60 179.64 520.60 182.34 C 524.95 182.32 529.31 182.32 533.66 182.37 C 533.78 195.61 533.70 208.85 533.71 222.09 C 536.91 222.10 540.11 222.10 543.32 222.09 C 543.34 208.85 543.25 195.61 543.37 182.37 C 547.70 182.32 552.03 182.32 556.37 182.33 C 556.37 179.63 556.37 176.94 556.38 174.24 C 544.45 174.17 532.52 174.16 520.60 174.24 Z" />
<path fill="#6c3535" opacity="0.30" d=" M 610.33 174.11 C 614.87 173.90 619.42 173.99 623.97 174.00 C 624.64 175.49 625.29 176.98 625.91 178.50 C 624.99 177.04 624.02 175.62 623.08 174.19 C 619.02 174.18 614.96 174.18 610.90 174.25 C 610.94 190.19 610.89 206.14 610.92 222.08 C 613.79 222.09 616.66 222.09 619.54 222.10 C 619.59 209.87 619.54 197.66 619.16 185.44 C 619.67 186.17 620.18 186.91 620.69 187.65 C 619.19 199.25 620.47 211.01 619.91 222.67 C 616.74 222.71 613.57 222.68 610.41 222.56 C 610.21 206.41 610.36 190.26 610.33 174.11 Z" />
<path fill="#6c3535" opacity="0.30" d=" M 643.99 173.99 C 647.26 173.96 650.54 173.97 653.81 174.06 C 653.76 190.23 654.00 206.41 653.68 222.58 C 649.30 222.58 644.87 223.11 640.53 222.42 C 638.19 220.45 636.76 217.68 635.18 215.12 C 634.23 212.47 632.89 209.98 631.90 207.34 C 635.22 211.83 637.16 217.19 640.60 221.58 C 644.55 222.79 648.99 221.85 653.14 222.06 C 653.17 206.13 653.12 190.20 653.16 174.27 C 650.21 174.21 647.27 174.18 644.33 174.18 C 644.23 186.35 644.28 198.52 644.78 210.68 C 642.84 208.16 641.27 205.40 639.88 202.55 C 641.45 204.19 642.66 206.11 643.91 207.99 C 644.07 196.66 643.94 185.32 643.99 173.99 Z" />
<path fill="#6c3535" opacity="0.30" d=" M 693.03 174.26 C 694.40 173.11 697.97 173.89 697.88 175.87 C 696.10 176.02 694.52 175.05 693.03 174.26 Z" />
<path fill="#6c3535" opacity="0.30" d=" M 723.54 193.16 C 726.38 186.61 730.03 180.45 733.08 174.00 C 736.89 173.98 740.70 173.97 744.52 174.02 C 741.20 181.86 736.27 188.92 732.87 196.73 C 732.19 198.19 731.25 199.51 730.36 200.84 C 730.66 202.52 730.93 204.22 731.19 205.93 C 730.38 205.05 729.59 204.18 728.78 203.33 C 728.94 209.75 729.01 216.17 728.73 222.58 C 725.16 222.74 721.58 222.75 718.02 222.62 C 717.31 215.54 718.54 208.37 717.15 201.36 C 718.01 202.73 718.75 204.24 718.67 205.91 C 718.79 211.30 718.60 216.70 718.67 222.09 C 721.83 222.10 724.99 222.10 728.15 222.08 C 728.22 216.72 728.08 211.35 728.15 205.98 C 727.93 202.20 730.56 199.21 732.15 196.01 C 735.98 188.70 740.29 181.63 743.81 174.15 C 740.48 174.18 737.16 174.20 733.83 174.20 C 730.18 180.83 727.08 187.76 723.27 194.30 C 721.65 191.38 720.17 188.39 718.90 185.31 C 720.90 187.64 722.01 190.54 723.54 193.16 Z" />
<path fill="#6c3535" opacity="0.30" d=" M 257.37 175.38 C 257.39 175.38 257.44 175.36 257.46 175.35 C 257.44 175.36 257.39 175.38 257.37 175.38 Z" />
<path fill="#6c3535" opacity="0.30" d=" M 277.43 174.94 C 278.78 175.48 282.40 175.47 281.51 177.84 C 280.21 180.50 280.33 185.05 276.61 185.43 L 277.19 184.80 C 279.43 182.72 280.10 179.64 281.17 176.90 C 279.92 176.24 278.68 175.57 277.43 174.94 Z" />
<path fill="#6c3535" opacity="0.30" d=" M 395.89 187.02 C 395.53 181.90 398.59 176.72 403.43 174.87 C 399.12 177.82 395.64 182.57 396.28 188.06 C 396.65 194.10 401.66 198.36 406.68 200.93 C 400.54 199.59 395.46 193.42 395.89 187.02 Z" />
<path fill="#6c3535" opacity="0.30" d=" M 422.99 175.22 C 424.49 173.72 428.86 176.70 426.34 177.83 C 425.22 176.95 424.11 176.07 422.99 175.22 Z" />
<path fill="#6c3535" opacity="0.30" d=" M 244.77 194.09 C 245.70 186.80 249.20 178.56 256.55 175.79 C 251.36 179.12 247.38 184.29 246.09 190.38 C 244.52 198.48 245.10 207.18 248.89 214.62 C 244.41 208.90 244.27 201.02 244.77 194.09 Z" />
<path fill="#6c3535" opacity="0.30" d=" M 699.38 175.82 C 700.55 178.57 698.31 181.35 697.46 183.92 C 697.12 185.58 695.46 184.99 694.59 184.13 C 695.13 184.20 696.22 184.35 696.77 184.42 C 697.83 181.61 698.60 178.71 699.38 175.82 Z" />
<path fill="#6c3535" opacity="0.30" d=" M 425.53 179.53 C 425.55 179.50 425.58 179.44 425.59 179.41 C 425.58 179.44 425.55 179.50 425.53 179.53 Z" />
<path fill="#6c3535" opacity="0.30" d=" M 588.91 179.24 L 589.82 179.34 L 590.32 180.30 L 589.89 181.11 C 589.65 180.64 589.15 179.71 588.91 179.24 Z" />
<path fill="#6c3535" opacity="0.30" d=" M 625.94 178.56 C 627.91 180.50 629.35 182.94 629.86 185.67 C 628.53 183.31 627.20 180.95 625.94 178.56 Z" />
<path fill="#6c3535" opacity="0.30" d=" M 568.14 193.71 C 569.06 188.78 570.68 183.92 573.08 179.51 C 571.76 184.35 570.08 189.08 568.14 193.71 Z" />
<path fill="#6c3535" opacity="0.30" d=" M 716.47 180.47 C 716.49 180.51 716.53 180.58 716.55 180.62 C 716.53 180.58 716.49 180.51 716.47 180.47 Z" />
<path fill="#6c3535" opacity="0.30" d=" M 265.07 181.72 C 266.63 180.97 268.39 181.13 269.97 181.75 C 268.79 183.08 266.22 183.08 265.07 181.72 Z" />
<path fill="#6c3535" opacity="0.30" d=" M 309.23 182.24 C 309.03 180.54 313.10 180.60 312.99 182.28 C 311.73 182.40 310.48 182.39 309.23 182.24 Z" />
<path fill="#6c3535" opacity="0.30" d=" M 410.01 181.69 C 411.55 180.83 413.35 181.29 414.96 181.73 C 413.77 183.11 411.18 183.04 410.01 181.69 Z" />
<path fill="#6c3535" opacity="0.30" d=" M 423.16 184.02 C 423.81 182.80 424.45 181.59 425.10 180.38 C 424.51 181.76 424.98 184.36 423.04 184.75 C 421.62 184.67 420.50 183.68 419.33 183.01 C 420.29 183.26 422.20 183.77 423.16 184.02 Z" />
<path fill="#6c3535" opacity="0.30" d=" M 683.95 181.60 C 685.25 180.94 686.74 181.13 688.06 181.71 C 686.65 183.00 685.28 182.96 683.95 181.60 Z" />
<path fill="#6c3535" opacity="0.30" d=" M 256.79 189.31 C 258.00 185.75 260.67 182.73 264.47 181.93 C 261.28 183.67 258.81 186.34 256.79 189.31 Z" />
<path fill="#6c3535" opacity="0.30" d=" M 271.22 182.08 C 271.71 182.26 272.71 182.62 273.21 182.81 L 272.46 183.35 L 271.44 182.98 L 271.22 182.08 Z" />
<path fill="#6c3535" opacity="0.30" d=" M 314.06 182.19 C 315.40 181.32 318.48 182.42 318.12 184.21 C 316.61 183.91 315.07 183.40 314.06 182.19 Z" />
<path fill="#6c3535" opacity="0.30" d=" M 406.32 189.15 C 405.60 186.22 406.01 182.59 409.55 181.90 C 407.29 183.71 406.19 186.25 406.32 189.15 Z" />
<path fill="#6c3535" opacity="0.30" d=" M 416.26 181.97 C 417.27 181.93 418.19 182.22 419.00 182.85 C 417.51 183.99 416.59 183.70 416.26 181.97 Z" />
<path fill="#6c3535" opacity="0.30" d=" M 576.59 195.99 C 578.21 191.21 579.08 186.15 581.28 181.58 C 581.88 183.38 582.45 185.21 582.92 187.05 C 582.36 186.72 581.24 186.04 580.68 185.70 C 578.75 191.07 577.08 196.52 575.39 201.97 C 579.38 202.09 583.38 201.99 587.36 201.63 L 588.26 201.58 C 584.08 202.87 579.55 202.01 575.24 202.14 C 574.97 200.01 576.10 198.01 576.59 195.99 Z" />
<path fill="#6c3535" opacity="0.30" d=" M 589.92 182.05 L 590.82 182.19 L 591.28 183.17 L 590.80 183.96 C 590.58 183.48 590.14 182.53 589.92 182.05 Z" />
<path fill="#6c3535" opacity="0.30" d=" M 675.97 187.24 C 677.54 184.45 680.12 182.35 683.33 181.81 C 680.66 183.31 678.25 185.21 675.97 187.24 Z" />
<path fill="#6c3535" opacity="0.30" d=" M 689.32 181.95 C 691.00 182.12 692.67 182.63 694.00 183.75 C 692.60 184.87 689.10 183.95 689.32 181.95 Z" />
<path fill="#6c3535" opacity="0.30" d=" M 717.50 182.43 C 717.51 182.46 717.55 182.53 717.57 182.57 C 717.55 182.53 717.51 182.46 717.50 182.43 Z" />
<path fill="#6c3535" opacity="0.30" d=" M 274.10 183.09 C 274.60 183.28 275.59 183.65 276.09 183.83 L 275.32 184.37 L 274.30 183.98 L 274.10 183.09 Z" />
<path fill="#6c3535" opacity="0.30" d=" M 361.85 183.35 C 365.41 187.49 367.47 192.65 370.39 197.23 C 372.31 200.68 374.78 203.87 375.93 207.70 C 371.03 199.71 366.25 191.63 361.85 183.35 Z" />
<path fill="#6c3535" opacity="0.30" d=" M 662.88 197.99 C 662.91 192.90 663.72 187.46 666.90 183.33 C 662.52 192.41 662.69 203.11 665.99 212.50 C 663.19 208.24 662.88 202.94 662.88 197.99 Z" />
<path fill="#6c3535" opacity="0.30" d=" M 718.48 184.38 C 718.49 184.41 718.52 184.47 718.53 184.50 C 718.52 184.47 718.49 184.41 718.48 184.38 Z" />
<path fill="#6c3535" opacity="0.30" d=" M 319.08 184.49 C 323.51 188.73 323.65 195.39 323.38 201.11 C 323.12 206.34 320.89 212.48 315.43 214.24 C 311.05 215.37 305.57 215.23 302.33 211.62 C 300.13 209.48 299.21 206.43 299.00 203.44 C 300.22 206.97 301.44 211.10 305.05 212.92 C 310.54 215.60 318.93 214.27 321.11 207.85 C 323.73 200.26 323.18 191.46 319.08 184.49 Z" />
<path fill="#6c3535" opacity="0.30" d=" M 590.97 184.38 C 593.29 188.86 595.01 193.73 595.92 198.71 C 594.00 194.03 592.22 189.28 590.97 184.38 Z" />
<path fill="#6c3535" opacity="0.30" d=" M 708.40 185.43 C 708.42 185.46 708.45 185.52 708.47 185.55 C 708.45 185.52 708.42 185.46 708.40 185.43 Z" />
<path fill="#6c3535" opacity="0.30" d=" M 299.09 192.64 C 299.28 189.91 300.02 187.12 302.13 185.22 C 301.05 187.67 300.02 190.14 299.09 192.64 Z" />
<path fill="#6c3535" opacity="0.30" d=" M 629.97 185.89 C 631.94 185.18 633.62 188.61 632.58 190.18 C 631.44 188.92 630.55 187.47 629.97 185.89 Z" />
<path fill="#6c3535" opacity="0.30" d=" M 708.95 186.35 C 711.30 190.01 713.38 193.83 715.09 197.83 C 712.33 194.45 710.35 190.46 708.95 186.35 Z" />
<path fill="#6c3535" opacity="0.30" d=" M 582.78 188.11 L 583.65 188.31 L 584.03 189.31 L 583.50 190.06 C 583.32 189.57 582.96 188.60 582.78 188.11 Z" />
<path fill="#6c3535" opacity="0.30" d=" M 675.08 207.59 C 672.65 201.15 672.85 193.71 675.83 187.49 C 673.93 194.04 673.57 200.91 675.08 207.59 Z" />
<path fill="#6c3535" opacity="0.30" d=" M 621.46 188.76 C 622.45 190.11 623.19 191.62 623.87 193.15 C 621.77 193.90 620.24 190.30 621.46 188.76 Z" />
<path fill="#6c3535" opacity="0.30" d=" M 255.87 191.83 C 256.03 191.33 256.37 190.32 256.54 189.82 L 257.12 190.58 L 256.77 191.61 L 255.87 191.83 Z" />
<path fill="#6c3535" opacity="0.30" d=" M 407.04 189.96 C 411.30 192.13 415.76 194.04 419.63 196.89 C 415.36 194.74 410.68 193.17 407.04 189.96 Z" />
<path fill="#6c3535" opacity="0.30" d=" M 333.14 190.62 C 334.58 195.68 334.47 201.27 333.11 206.35 C 333.42 201.11 333.45 195.85 333.14 190.62 Z" />
<path fill="#6c3535" opacity="0.30" d=" M 583.65 190.27 C 585.49 193.43 586.34 197.02 586.91 200.59 C 585.36 197.31 584.41 193.80 583.65 190.27 Z" />
<path fill="#6c3535" opacity="0.30" d=" M 632.82 190.50 C 635.95 193.91 638.02 198.20 639.82 202.43 C 637.19 198.63 635.00 194.56 632.82 190.50 Z" />
<path fill="#6c3535" opacity="0.30" d=" M 255.83 204.51 C 254.85 200.54 255.06 196.41 255.80 192.42 C 256.02 196.45 256.04 200.48 255.83 204.51 Z" />
<path fill="#6c3535" opacity="0.30" d=" M 298.93 202.70 C 297.98 199.70 298.02 196.44 298.98 193.45 C 299.00 196.53 299.00 199.61 298.93 202.70 Z" />
<path fill="#6c3535" opacity="0.30" d=" M 357.38 193.97 C 358.66 196.04 359.85 198.15 360.97 200.30 C 359.09 198.66 357.85 196.42 357.38 193.97 Z" />
<path fill="#6c3535" opacity="0.30" d=" M 567.17 194.30 L 568.08 194.19 C 567.84 194.66 567.36 195.60 567.12 196.07 L 566.68 195.26 L 567.17 194.30 Z" />
<path fill="#6c3535" opacity="0.30" d=" M 624.01 193.42 C 625.87 196.45 627.74 199.48 629.22 202.72 C 626.65 200.18 625.03 196.84 624.01 193.42 Z" />
<path fill="#6c3535" opacity="0.30" d=" M 419.73 196.95 C 426.35 199.66 428.97 208.09 426.17 214.43 C 426.63 211.34 427.28 208.10 426.19 205.08 C 425.21 201.61 422.32 199.23 419.73 196.95 Z" />
<path fill="#6c3535" opacity="0.30" d=" M 566.03 197.24 L 566.92 197.03 C 566.74 197.53 566.36 198.52 566.18 199.01 L 565.65 198.25 L 566.03 197.24 Z" />
<path fill="#6c3535" opacity="0.30" d=" M 715.43 198.51 C 715.44 198.54 715.48 198.59 715.49 198.62 C 715.48 198.59 715.44 198.54 715.43 198.51 Z" />
<path fill="#6c3535" opacity="0.30" d=" M 596.00 199.14 L 596.90 199.28 L 597.36 200.26 L 596.88 201.06 C 596.66 200.58 596.22 199.62 596.00 199.14 Z" />
<path fill="#6c3535" opacity="0.30" d=" M 561.06 213.77 C 561.89 208.76 563.69 203.88 566.02 199.38 C 564.74 204.30 562.99 209.07 561.06 213.77 Z" />
<path fill="#6c3535" opacity="0.30" d=" M 716.50 200.29 C 716.52 200.33 716.57 200.40 716.59 200.43 C 716.57 200.40 716.52 200.33 716.50 200.29 Z" />
<path fill="#6c3535" opacity="0.30" d=" M 361.22 200.73 C 363.75 204.48 365.96 208.42 367.99 212.46 C 365.02 209.04 362.75 204.98 361.22 200.73 Z" />
<path fill="#6c3535" opacity="0.30" d=" M 406.97 201.04 C 408.83 201.50 410.55 202.35 412.09 203.49 C 410.42 204.64 406.67 203.19 406.97 201.04 Z" />
<path fill="#6c3535" opacity="0.30" d=" M 597.06 201.51 C 599.25 206.01 601.25 210.77 601.88 215.76 C 600.05 211.09 598.40 206.35 597.06 201.51 Z" />
<path fill="#6c3535" opacity="0.30" d=" M 412.45 203.73 C 414.09 204.91 416.17 205.89 416.96 207.89 C 418.06 210.47 416.54 213.76 413.79 214.45 C 407.63 215.92 401.44 213.71 395.79 211.40 C 395.80 214.27 395.80 217.14 395.81 220.01 C 397.35 220.68 398.89 221.36 400.44 222.01 C 398.63 221.89 396.89 221.37 395.22 220.71 C 395.03 217.37 394.99 214.03 395.11 210.69 C 400.91 212.41 406.74 215.20 412.97 213.96 C 415.49 213.74 417.14 210.97 416.47 208.62 C 415.42 206.77 413.79 205.35 412.45 203.73 Z" />
<path fill="#6c3535" opacity="0.30" d=" M 255.87 204.71 C 257.53 208.00 258.90 212.04 262.70 213.45 C 268.41 215.30 274.39 213.38 279.97 211.92 C 280.08 214.97 280.11 218.03 280.14 221.08 C 278.75 221.55 277.31 221.88 275.84 222.01 C 277.09 221.43 278.32 220.84 279.56 220.24 C 279.53 217.73 279.51 215.22 279.50 212.72 C 274.06 214.24 268.13 216.04 262.56 214.11 C 258.60 212.69 256.60 208.58 255.87 204.71 Z" />
<path fill="#6c3535" opacity="0.30" d=" M 631.35 206.48 C 631.37 206.50 631.40 206.56 631.42 206.59 C 631.40 206.56 631.37 206.50 631.35 206.48 Z" />
<path fill="#6c3535" opacity="0.30" d=" M 332.12 208.86 C 332.29 208.36 332.64 207.37 332.82 206.87 L 333.36 207.62 L 333.00 208.64 L 332.12 208.86 Z" />
<path fill="#6c3535" opacity="0.30" d=" M 675.42 208.46 C 675.43 208.50 675.46 208.57 675.48 208.61 C 675.46 208.57 675.43 208.50 675.42 208.46 Z" />
<path fill="#6c3535" opacity="0.30" d=" M 323.08 220.03 C 327.42 217.85 330.02 213.56 332.16 209.39 C 330.59 216.84 323.30 222.25 315.96 223.23 C 309.34 223.75 301.66 223.99 296.45 219.14 C 304.58 223.49 314.77 224.42 323.08 220.03 Z" />
<path fill="#6c3535" opacity="0.30" d=" M 571.90 210.50 C 577.89 210.33 583.90 210.08 589.88 210.49 C 591.80 214.11 592.45 218.23 593.69 222.11 C 597.42 222.09 601.16 222.08 604.90 222.13 C 601.07 222.96 597.13 222.72 593.25 222.66 C 591.89 218.89 590.78 215.04 589.74 211.17 C 584.02 211.10 578.31 211.06 572.59 211.25 C 571.55 215.03 570.34 218.77 569.25 222.54 C 565.45 222.75 561.65 222.75 557.85 222.63 C 558.01 220.40 558.71 218.28 559.99 216.45 C 559.41 218.32 558.87 220.20 558.31 222.09 C 561.79 222.10 565.26 222.10 568.74 222.08 C 569.87 218.24 570.96 214.39 571.90 210.50 Z" />
<path fill="#6c3535" opacity="0.30" d=" M 675.90 209.49 C 677.98 211.31 679.97 213.71 682.92 213.98 C 688.23 214.88 693.37 213.06 698.51 212.06 C 698.53 215.08 698.49 218.10 698.36 221.12 C 691.64 223.68 684.08 224.34 677.10 222.54 C 673.48 221.24 669.40 219.35 667.95 215.52 C 674.98 224.02 687.59 224.40 697.22 220.68 C 698.16 218.18 697.63 215.38 697.78 212.76 C 692.44 214.27 686.70 215.79 681.19 214.23 C 678.80 213.53 677.05 211.62 675.90 209.49 Z" />
<path fill="#6c3535" opacity="0.30" d=" M 289.93 210.54 C 291.79 213.62 293.99 216.48 296.43 219.13 C 293.10 217.44 290.93 214.05 289.93 210.54 Z" />
<path fill="#6c3535" opacity="0.30" d=" M 467.36 219.73 C 470.53 217.87 472.40 214.60 474.11 211.47 C 472.68 219.16 464.30 223.39 457.06 223.45 C 450.57 223.87 442.57 222.72 438.86 216.73 C 446.35 223.91 458.50 224.79 467.36 219.73 Z" />
<path fill="#6c3535" opacity="0.30" d=" M 666.32 212.83 C 667.19 213.42 667.70 214.24 667.87 215.29 C 666.16 215.36 665.65 214.54 666.32 212.83 Z" />
<path fill="#6c3535" opacity="0.30" d=" M 560.09 214.28 L 560.99 214.11 C 560.78 214.60 560.37 215.56 560.16 216.05 L 559.66 215.27 L 560.09 214.28 Z" />
<path fill="#6c3535" opacity="0.30" d=" M 248.94 214.70 C 251.55 217.66 254.58 220.49 258.49 221.58 C 263.84 223.52 269.58 222.91 275.09 222.17 C 272.42 223.94 269.05 223.32 266.04 223.48 C 259.44 223.69 252.00 220.91 248.94 214.70 Z" />
<path fill="#6c3535" opacity="0.30" d=" M 416.98 222.04 C 420.73 220.49 423.91 217.87 426.14 214.49 C 424.86 218.43 421.20 221.82 416.98 222.04 Z" />
<path fill="#6c3535" opacity="0.30" d=" M 601.94 216.16 L 602.84 216.23 L 603.39 217.16 L 603.00 217.98 C 602.73 217.53 602.20 216.62 601.94 216.16 Z" />
<path fill="#6c3535" opacity="0.30" d=" M 603.13 218.95 L 604.00 219.20 L 604.34 220.23 L 603.78 220.98 C 603.62 220.47 603.29 219.46 603.13 218.95 Z" />
<path fill="#6c3535" opacity="0.30" d=" M 400.57 222.05 C 405.69 222.88 410.93 223.33 416.06 222.22 L 415.91 223.10 C 410.85 223.32 405.23 224.48 400.57 222.05 Z" />
<path fill="#6c3535" opacity="0.30" d=" M 195.01 249.00 C 199.92 249.27 204.03 246.21 207.04 242.64 C 204.26 249.29 196.30 250.23 190.00 250.07 C 149.35 249.98 108.69 250.28 68.04 249.82 C 64.36 249.76 60.33 249.16 57.68 246.35 C 60.68 247.57 63.66 249.22 67.00 249.01 C 109.67 249.09 152.34 249.20 195.01 249.00 Z" />
<path fill="#6c3535" opacity="0.30" d=" M 41.05 245.18 C 41.30 245.65 41.79 246.59 42.03 247.06 L 41.13 246.97 L 40.62 246.01 L 41.05 245.18 Z" />
<path fill="#6c3535" opacity="0.30" d=" M 219.98 246.92 C 220.19 246.43 220.60 245.45 220.81 244.97 L 221.31 245.75 L 220.89 246.75 L 219.98 246.92 Z" />
<path fill="#6c3535" opacity="0.30" d=" M 55.53 260.95 C 59.93 262.05 64.41 262.92 68.96 262.94 C 109.62 263.21 150.28 262.82 190.94 262.95 C 196.20 263.09 201.44 262.24 206.52 260.94 C 201.91 263.72 196.26 263.60 191.05 263.80 C 154.39 263.63 117.73 264.09 81.08 263.87 C 72.60 263.28 63.32 265.21 55.53 260.95 Z" />
</g>
<g id="#ed2323ff">
<path fill="#ed2323" opacity="1.00" d=" M 53.41 47.94 C 58.38 46.16 63.63 45.15 68.91 45.09 C 106.96 44.98 145.01 45.21 183.05 44.98 C 192.53 44.93 202.61 44.20 211.16 49.13 C 217.32 52.82 221.23 59.77 221.49 66.91 C 221.84 81.94 222.82 96.98 221.82 112.00 C 221.97 119.65 221.50 127.33 222.09 134.96 C 202.10 134.88 182.10 135.01 162.10 134.90 C 162.06 125.68 162.21 116.46 162.04 107.25 C 142.77 107.09 123.51 107.34 104.25 107.09 C 104.08 121.77 104.14 136.45 104.23 151.13 C 127.57 151.25 150.91 151.26 174.25 151.17 C 174.62 173.36 173.91 195.58 174.59 217.74 C 146.70 218.25 118.78 217.54 90.89 218.10 C 91.43 205.77 91.00 193.42 91.11 181.09 C 95.27 181.08 99.42 181.09 103.58 181.15 C 103.62 189.05 103.49 196.95 103.66 204.85 C 122.69 204.97 141.73 204.97 160.76 204.83 C 160.90 191.48 160.83 178.14 160.79 164.79 C 137.55 164.57 114.30 164.65 91.05 164.73 C 90.99 141.19 91.12 117.64 91.03 94.10 C 119.35 94.07 147.67 94.07 175.99 94.08 C 176.03 103.37 175.96 112.66 176.03 121.94 C 186.94 121.57 197.87 121.89 208.78 121.71 C 209.32 108.50 208.99 95.27 208.92 82.05 C 208.83 76.46 209.54 70.61 207.22 65.34 L 207.12 65.14 C 205.09 60.45 199.98 58.10 195.06 58.22 C 155.37 58.16 115.67 57.46 75.99 58.19 C 69.88 58.44 62.88 57.02 57.68 61.08 C 53.95 64.21 53.38 69.47 53.39 74.04 C 53.40 127.38 53.39 180.72 53.39 234.05 C 53.37 237.01 53.76 240.00 55.08 242.67 C 55.77 244.01 56.69 245.22 57.68 246.35 C 60.33 249.16 64.36 249.76 68.04 249.82 C 108.69 250.28 149.35 249.98 190.00 250.07 C 196.30 250.23 204.26 249.29 207.04 242.64 C 209.15 238.04 208.59 232.89 208.66 227.98 C 208.70 203.91 208.56 179.83 208.71 155.76 C 213.31 155.73 217.91 155.74 222.51 155.75 C 222.53 179.84 222.52 203.92 222.51 228.00 C 222.32 233.67 222.80 239.54 220.81 244.97 C 220.60 245.45 220.19 246.43 219.98 246.92 C 218.01 253.35 212.59 258.32 206.52 260.94 C 201.44 262.24 196.20 263.09 190.94 262.95 C 150.28 262.82 109.62 263.21 68.96 262.94 C 64.41 262.92 59.93 262.05 55.53 260.95 C 49.44 258.46 43.91 253.50 42.03 247.06 C 41.79 246.59 41.30 245.65 41.05 245.18 C 38.97 239.01 39.60 232.43 39.53 226.04 C 39.48 174.35 39.45 122.67 39.56 70.99 C 39.79 61.61 44.75 52.10 53.41 47.94 Z" />
<path fill="#ed2323" opacity="1.00" d=" M 252.37 96.42 C 261.24 91.50 272.20 93.56 281.02 97.59 C 280.33 99.40 279.73 101.26 278.84 102.99 C 278.60 103.47 278.13 104.42 277.90 104.89 L 277.80 106.29 L 276.95 106.67 C 271.56 104.98 265.67 102.02 260.03 104.32 C 257.06 105.51 256.44 109.49 257.79 112.09 C 260.49 115.41 264.79 116.63 268.44 118.60 C 272.81 120.94 277.71 123.38 279.94 128.10 C 282.66 134.10 281.74 142.11 276.49 146.47 C 270.97 151.44 262.92 151.84 255.89 151.19 C 252.07 150.46 247.72 150.15 244.59 147.69 C 244.33 144.13 244.55 140.55 244.52 136.98 C 250.73 139.31 257.11 142.39 263.94 141.50 C 266.77 141.16 269.71 139.08 269.66 135.96 C 269.91 132.75 266.98 130.63 264.48 129.29 C 259.10 126.24 252.69 124.40 248.69 119.42 C 242.91 112.71 244.46 100.83 252.37 96.42 Z" />
<path fill="#ed2323" opacity="1.00" d=" M 284.44 94.48 C 288.33 94.46 292.23 94.47 296.12 94.47 C 299.81 109.29 303.23 124.19 306.27 139.16 C 307.24 131.33 309.04 123.61 311.31 116.06 C 311.47 115.55 311.79 114.54 311.95 114.03 C 313.35 107.49 315.38 101.08 316.80 94.52 C 320.62 94.44 324.44 94.45 328.27 94.50 C 331.60 109.39 336.97 123.86 338.74 139.08 C 342.01 124.18 345.29 109.28 348.95 94.48 C 352.84 94.46 356.73 94.46 360.63 94.47 C 358.90 100.93 357.65 107.52 355.73 113.93 C 355.54 114.43 355.16 115.42 354.97 115.91 C 352.83 125.66 350.40 135.39 347.70 145.01 C 347.52 145.51 347.16 146.51 346.98 147.01 C 346.83 148.20 346.64 149.38 346.42 150.56 C 341.85 150.54 337.28 150.56 332.71 150.54 C 330.49 141.66 327.99 132.82 326.06 123.88 C 325.87 123.39 325.48 122.40 325.29 121.91 C 323.92 117.69 323.38 113.26 322.77 108.89 C 321.68 113.21 321.05 117.65 319.73 121.92 C 319.56 122.42 319.23 123.43 319.06 123.93 C 317.07 132.86 314.71 141.72 312.34 150.56 C 307.83 150.54 303.32 150.54 298.81 150.55 C 293.97 131.87 289.15 113.19 284.44 94.48 Z" />
<path fill="#ed2323" opacity="1.00" d=" M 377.06 105.06 C 377.87 101.41 379.43 97.97 380.60 94.43 C 385.44 94.49 390.28 94.46 395.11 94.46 C 397.71 102.01 400.86 109.39 402.97 117.09 C 403.18 117.58 403.60 118.55 403.81 119.04 C 406.79 126.62 409.47 134.35 411.93 142.11 C 412.15 142.59 412.60 143.55 412.82 144.03 C 413.76 146.10 414.33 148.32 414.99 150.49 C 410.67 150.54 406.34 150.61 402.03 150.44 C 401.04 146.00 399.51 141.71 398.43 137.30 C 391.68 136.43 384.81 136.86 378.06 137.05 C 376.61 138.57 376.67 141.07 375.75 142.95 C 375.55 143.44 375.15 144.42 374.95 144.91 C 374.74 146.87 374.04 148.73 373.43 150.59 C 369.07 150.49 364.71 150.64 360.36 150.39 L 361.24 149.07 C 361.46 148.59 361.90 147.63 362.12 147.15 C 366.37 133.63 371.44 120.34 376.16 106.98 C 376.39 106.50 376.83 105.54 377.06 105.06 M 387.80 103.84 C 386.96 107.32 385.44 110.66 385.10 114.25 L 384.21 114.32 L 383.69 115.26 L 384.10 116.08 L 384.12 117.21 L 383.23 117.31 L 382.74 118.25 L 383.15 119.06 L 383.13 120.16 L 382.24 120.33 L 381.82 121.34 L 382.32 122.12 C 381.39 123.51 381.28 125.24 380.81 126.81 C 385.64 126.94 390.48 126.92 395.31 126.85 C 393.92 123.34 393.33 119.52 391.70 116.11 L 392.18 115.33 L 391.75 114.33 L 390.86 114.17 L 390.86 113.00 L 391.26 112.18 L 390.74 111.25 L 389.85 111.16 C 389.79 108.59 388.64 106.22 387.80 103.84 Z" />
<path fill="#ed2323" opacity="1.00" d=" M 422.08 94.67 C 429.67 94.31 437.33 94.32 444.94 94.70 C 451.70 95.36 458.37 98.27 462.87 103.46 C 464.32 105.79 465.67 108.17 466.94 110.61 L 466.96 111.17 C 467.16 111.65 467.56 112.63 467.77 113.12 C 469.22 118.99 469.16 125.25 467.79 131.13 C 467.60 131.63 467.23 132.63 467.04 133.13 C 465.29 139.99 459.59 145.83 452.87 147.93 C 452.39 148.15 451.43 148.61 450.96 148.83 C 441.63 151.66 431.73 150.20 422.14 150.47 C 422.31 141.67 422.17 132.86 422.20 124.05 C 422.00 119.04 421.51 114.03 421.92 109.02 C 422.54 104.24 421.17 99.43 422.08 94.67 M 434.11 140.60 C 439.44 140.86 445.25 141.03 449.90 137.93 C 454.78 134.74 456.43 128.53 456.50 123.01 C 456.61 117.17 455.39 110.39 450.16 106.91 C 445.58 103.50 439.62 104.55 434.30 104.29 C 434.03 116.39 434.36 128.49 434.11 140.60 Z" />
<path fill="#ed2323" opacity="1.00" d=" M 480.47 94.48 C 484.51 94.46 488.55 94.48 492.60 94.44 C 492.67 101.73 492.62 109.03 492.63 116.33 C 500.03 116.30 507.44 116.40 514.84 116.28 C 514.70 109.04 514.77 101.80 514.77 94.55 C 518.80 94.42 522.84 94.44 526.88 94.50 C 526.80 113.16 526.80 131.82 526.86 150.48 C 522.83 150.55 518.80 150.57 514.77 150.47 C 514.80 142.40 514.78 134.33 514.75 126.25 C 507.38 126.29 500.02 126.33 492.65 126.24 C 492.58 134.36 492.70 142.48 492.59 150.60 C 488.54 150.52 484.50 150.54 480.46 150.53 C 480.49 131.85 480.45 113.16 480.47 94.48 Z" />
<path fill="#ed2323" opacity="1.00" d=" M 539.07 136.16 C 543.60 122.15 548.80 108.34 553.72 94.45 C 558.58 94.47 563.44 94.47 568.30 94.46 C 570.24 99.99 572.42 105.47 573.95 111.13 C 574.18 111.61 574.62 112.57 574.84 113.05 C 579.34 125.51 583.91 137.97 588.12 150.54 C 583.79 150.53 579.47 150.56 575.15 150.56 C 575.14 150.11 575.13 149.22 575.12 148.77 C 574.91 148.28 574.49 147.30 574.28 146.81 C 573.10 143.69 572.26 140.46 571.33 137.26 C 564.47 137.16 557.62 137.10 550.77 136.79 C 549.73 140.15 548.98 143.60 547.73 146.89 C 547.51 147.37 547.08 148.34 546.86 148.82 C 546.87 149.25 546.90 150.11 546.91 150.54 C 542.60 150.54 538.29 150.52 533.98 150.53 C 535.27 146.35 536.53 142.14 538.22 138.10 C 538.43 137.61 538.86 136.64 539.07 136.16 M 560.93 103.86 C 558.45 111.49 556.42 119.26 553.75 126.82 C 558.70 126.88 563.67 127.07 568.62 126.66 C 568.00 125.16 567.44 123.65 566.73 122.20 L 567.22 121.40 L 566.78 120.40 L 565.88 120.26 C 564.79 114.67 562.82 109.23 560.93 103.86 Z" />
<path fill="#ed2323" opacity="1.00" d=" M 595.34 94.48 C 605.54 94.99 616.32 92.86 626.01 96.91 C 634.44 100.57 637.09 112.38 631.77 119.63 C 629.96 122.53 626.97 124.31 624.03 125.87 C 629.23 134.21 635.00 142.18 640.23 150.50 C 635.95 150.47 631.66 150.71 627.39 150.45 C 622.55 143.45 618.27 136.04 613.87 128.76 C 611.73 128.70 609.59 128.66 607.47 128.61 C 607.38 135.92 607.43 143.24 607.44 150.55 C 603.41 150.54 599.38 150.54 595.36 150.52 C 595.36 131.84 595.36 113.16 595.34 94.48 M 607.45 104.33 C 607.45 109.25 607.40 114.17 607.46 119.10 C 611.84 118.91 616.99 119.57 620.52 116.39 C 623.06 113.84 622.27 110.00 621.21 106.96 C 617.20 104.03 612.16 104.25 607.45 104.33 Z" />
<path fill="#ed2323" opacity="1.00" d=" M 647.37 94.47 C 652.74 94.44 658.12 94.52 663.49 94.41 C 664.68 98.29 666.31 102.08 666.94 106.11 C 667.22 106.55 667.78 107.44 668.06 107.88 L 668.06 109.08 C 668.24 109.58 668.59 110.58 668.77 111.08 C 670.65 116.73 672.44 122.45 673.90 128.23 C 674.10 128.72 674.49 129.70 674.69 130.19 C 675.58 132.51 676.25 134.91 677.15 137.24 C 677.84 135.18 678.40 133.07 679.25 131.06 C 679.46 130.58 679.87 129.60 680.08 129.11 L 680.12 127.98 C 680.36 127.52 680.85 126.60 681.10 126.13 L 681.12 125.06 C 681.37 124.60 681.87 123.68 682.12 123.22 C 683.24 118.76 684.71 114.37 686.18 110.01 C 686.37 109.52 686.76 108.53 686.95 108.04 L 686.97 106.92 C 687.22 106.47 687.74 105.57 687.99 105.12 L 687.97 103.99 C 688.24 103.55 688.79 102.66 689.06 102.22 L 689.11 101.65 C 689.96 99.37 690.56 96.90 692.03 94.92 C 697.05 94.52 702.09 94.91 707.13 94.79 C 707.17 113.26 707.12 131.74 707.13 150.22 C 703.66 150.22 700.19 150.22 696.72 150.22 C 696.68 135.66 696.69 121.11 697.23 106.57 C 695.20 109.14 694.49 112.38 693.48 115.42 C 690.16 126.50 685.77 137.23 682.87 148.44 C 682.73 148.96 682.44 150.00 682.30 150.52 C 678.53 150.56 674.75 150.60 670.99 150.43 C 669.98 145.54 668.02 140.93 666.90 136.08 C 666.71 135.59 666.32 134.60 666.13 134.10 C 663.09 125.18 661.02 115.94 657.50 107.18 C 657.35 112.46 657.84 117.71 658.18 122.97 C 658.20 132.13 658.15 141.28 658.17 150.44 C 654.58 150.57 650.98 150.55 647.39 150.53 C 647.38 131.85 647.38 113.16 647.37 94.47 Z" />
<path fill="#ed2323" opacity="1.00" d=" M 731.07 105.13 C 731.97 101.47 733.52 98.01 734.71 94.44 C 739.55 94.48 744.40 94.48 749.26 94.44 C 749.84 96.25 750.60 98.02 750.92 99.92 C 751.17 100.39 751.66 101.32 751.91 101.79 C 752.40 102.87 752.74 103.99 752.92 105.15 C 753.12 105.64 753.52 106.62 753.72 107.11 C 757.44 117.78 761.69 128.30 764.91 139.13 C 765.13 139.61 765.57 140.58 765.78 141.06 C 766.68 143.01 767.49 145.04 767.85 147.17 C 768.04 147.67 768.43 148.66 768.62 149.16 L 769.70 150.31 C 765.31 150.70 760.90 150.45 756.51 150.60 C 755.01 146.20 753.74 141.73 752.47 137.27 C 746.34 136.35 740.12 136.94 733.95 136.78 C 731.73 136.13 731.39 138.48 730.63 139.87 C 730.46 140.37 730.13 141.38 729.97 141.89 C 729.52 144.88 728.43 147.73 727.47 150.59 C 723.25 150.50 719.02 150.56 714.81 150.46 C 715.54 148.29 716.22 146.10 717.14 144.01 C 717.37 143.53 717.83 142.58 718.06 142.10 C 719.43 136.97 721.28 131.96 723.12 126.97 C 723.36 126.50 723.82 125.55 724.06 125.08 C 725.82 119.00 727.98 113.00 730.22 107.07 C 730.43 106.59 730.86 105.62 731.07 105.13 M 741.90 103.85 C 741.24 106.30 740.24 108.70 740.13 111.26 L 739.23 111.35 L 738.72 112.29 L 739.13 113.10 L 739.14 114.28 L 738.26 114.37 L 737.75 115.30 L 738.15 116.11 L 738.17 117.22 L 737.28 117.40 L 736.87 118.39 L 737.37 119.17 C 736.03 121.51 735.63 124.25 734.92 126.82 C 739.72 126.88 744.52 127.04 749.32 126.79 C 747.93 122.09 746.62 117.34 744.75 112.81 L 745.22 112.00 L 744.78 111.00 L 743.89 110.86 C 743.73 108.40 742.71 106.13 741.90 103.85 Z" />
</g>
<g id="#000000ff">
<path fill="#000000" opacity="1.00" d=" M 260.84 174.05 L 261.43 173.83 C 265.75 173.35 270.11 173.40 274.42 173.96 L 274.96 174.18 C 275.44 174.37 276.42 174.76 276.91 174.96 L 277.43 174.94 C 278.68 175.57 279.92 176.24 281.17 176.90 C 280.10 179.64 279.43 182.72 277.19 184.80 L 276.09 183.83 C 275.59 183.65 274.60 183.28 274.10 183.09 L 273.21 182.81 C 272.71 182.62 271.71 182.26 271.22 182.08 L 269.97 181.75 C 268.39 181.13 266.63 180.97 265.07 181.72 L 264.47 181.93 C 260.67 182.73 258.00 185.75 256.79 189.31 L 256.54 189.82 C 256.37 190.32 256.03 191.33 255.87 191.83 L 255.80 192.42 C 255.06 196.41 254.85 200.54 255.83 204.51 L 255.87 204.71 C 256.60 208.58 258.60 212.69 262.56 214.11 C 268.13 216.04 274.06 214.24 279.50 212.72 C 279.51 215.22 279.53 217.73 279.56 220.24 C 278.32 220.84 277.09 221.43 275.84 222.01 L 275.09 222.17 C 269.58 222.91 263.84 223.52 258.49 221.58 C 254.58 220.49 251.55 217.66 248.94 214.70 L 248.89 214.62 C 245.10 207.18 244.52 198.48 246.09 190.38 C 247.38 184.29 251.36 179.12 256.55 175.79 L 257.37 175.38 C 257.39 175.38 257.44 175.36 257.46 175.35 L 258.90 174.94 C 259.39 174.71 260.36 174.27 260.84 174.05 Z" />
<path fill="#000000" opacity="1.00" d=" M 303.59 174.04 L 303.71 174.01 C 308.26 173.38 312.88 173.29 317.46 173.85 L 317.57 173.88 C 321.06 175.28 324.71 176.72 327.38 179.49 C 330.27 182.52 331.67 186.56 333.10 190.42 L 333.14 190.62 C 333.45 195.85 333.42 201.11 333.11 206.35 L 332.82 206.87 C 332.64 207.37 332.29 208.36 332.12 208.86 L 332.16 209.39 C 330.02 213.56 327.42 217.85 323.08 220.03 C 314.77 224.42 304.58 223.49 296.45 219.14 L 296.43 219.13 C 293.99 216.48 291.79 213.62 289.93 210.54 L 289.89 210.45 C 287.85 201.90 287.08 192.32 291.03 184.20 C 293.46 179.09 298.47 175.98 303.59 174.04 M 309.23 182.24 C 306.53 181.80 303.86 183.23 302.13 185.22 C 300.02 187.12 299.28 189.91 299.09 192.64 C 299.06 192.84 299.00 193.25 298.98 193.45 C 298.02 196.44 297.98 199.70 298.93 202.70 C 298.95 202.88 298.98 203.26 299.00 203.44 C 299.21 206.43 300.13 209.48 302.33 211.62 C 305.57 215.23 311.05 215.37 315.43 214.24 C 320.89 212.48 323.12 206.34 323.38 201.11 C 323.65 195.39 323.51 188.73 319.08 184.49 C 318.84 184.42 318.36 184.28 318.12 184.21 C 318.48 182.42 315.40 181.32 314.06 182.19 L 312.99 182.28 C 313.10 180.60 309.03 180.54 309.23 182.24 Z" />
<path fill="#000000" opacity="1.00" d=" M 344.15 173.82 C 348.32 174.26 352.52 174.03 356.70 174.20 C 358.28 177.32 360.12 180.30 361.85 183.35 C 366.25 191.63 371.03 199.71 375.93 207.70 L 376.38 208.41 C 376.85 209.13 377.32 209.86 377.81 210.58 C 377.74 198.46 377.66 186.33 377.72 174.21 C 380.59 174.19 383.46 174.20 386.33 174.23 C 386.33 190.18 386.34 206.13 386.33 222.08 C 382.14 222.10 377.95 222.11 373.76 222.11 C 371.97 218.88 370.07 215.71 368.07 212.60 L 367.99 212.46 C 365.96 208.42 363.75 204.48 361.22 200.73 L 360.97 200.30 C 359.85 198.15 358.66 196.04 357.38 193.97 L 356.94 193.17 C 355.61 190.47 354.08 187.88 352.25 185.50 C 352.39 197.70 352.39 209.90 352.38 222.10 C 349.66 222.09 346.94 222.08 344.22 222.07 C 344.24 205.99 344.37 189.90 344.15 173.82 Z" />
<path fill="#000000" opacity="1.00" d=" M 406.02 174.10 L 406.44 173.84 C 410.49 173.40 414.58 173.40 418.64 173.83 C 418.95 173.93 419.56 174.12 419.87 174.22 C 420.35 174.43 421.32 174.86 421.80 175.08 L 422.99 175.22 C 424.11 176.07 425.22 176.95 426.34 177.83 L 425.59 179.41 C 425.58 179.44 425.55 179.50 425.53 179.53 L 425.10 180.38 C 424.45 181.59 423.81 182.80 423.16 184.02 C 422.20 183.77 420.29 183.26 419.33 183.01 L 419.00 182.85 C 418.19 182.22 417.27 181.93 416.26 181.97 L 414.96 181.73 C 413.35 181.29 411.55 180.83 410.01 181.69 L 409.55 181.90 C 406.01 182.59 405.60 186.22 406.32 189.15 L 407.04 189.96 C 410.68 193.17 415.36 194.74 419.63 196.89 L 419.73 196.95 C 422.32 199.23 425.21 201.61 426.19 205.08 C 427.28 208.10 426.63 211.34 426.17 214.43 L 426.14 214.49 C 423.91 217.87 420.73 220.49 416.98 222.04 L 416.06 222.22 C 410.93 223.33 405.69 222.88 400.57 222.05 L 400.44 222.01 C 398.89 221.36 397.35 220.68 395.81 220.01 C 395.80 217.14 395.80 214.27 395.79 211.40 C 401.44 213.71 407.63 215.92 413.79 214.45 C 416.54 213.76 418.06 210.47 416.96 207.89 C 416.17 205.89 414.09 204.91 412.45 203.73 L 412.09 203.49 C 410.55 202.35 408.83 201.50 406.97 201.04 L 406.68 200.93 C 401.66 198.36 396.65 194.10 396.28 188.06 C 395.64 182.57 399.12 177.82 403.43 174.87 L 404.08 174.90 C 404.56 174.70 405.53 174.30 406.02 174.10 Z" />
<path fill="#000000" opacity="1.00" d=" M 487.16 173.86 C 490.41 174.14 493.68 174.13 496.94 174.11 C 497.26 187.15 496.82 200.22 497.18 213.26 C 497.21 213.49 497.26 213.95 497.29 214.18 C 503.62 214.30 509.95 214.14 516.29 214.22 C 516.29 216.84 516.30 219.46 516.31 222.08 C 506.62 222.10 496.94 222.15 487.26 222.05 C 487.26 205.99 487.46 189.92 487.16 173.86 Z" />
<path fill="#000000" opacity="1.00" d=" M 573.08 179.51 C 573.64 177.68 574.33 175.90 574.98 174.11 C 579.06 174.10 583.14 174.12 587.22 174.07 C 587.85 175.77 588.51 177.46 588.91 179.24 C 589.15 179.71 589.65 180.64 589.89 181.11 L 589.92 182.05 C 590.14 182.53 590.58 183.48 590.80 183.96 L 590.97 184.38 C 592.22 189.28 594.00 194.03 595.92 198.71 L 596.00 199.14 C 596.22 199.62 596.66 200.58 596.88 201.06 L 597.06 201.51 C 598.40 206.35 600.05 211.09 601.88 215.76 L 601.94 216.16 C 602.20 216.62 602.73 217.53 603.00 217.98 L 603.13 218.95 C 603.29 219.46 603.62 220.47 603.78 220.98 L 604.90 222.13 C 601.16 222.08 597.42 222.09 593.69 222.11 C 592.45 218.23 591.80 214.11 589.88 210.49 C 583.90 210.08 577.89 210.33 571.90 210.50 C 570.96 214.39 569.87 218.24 568.74 222.08 C 565.26 222.10 561.79 222.10 558.31 222.09 C 558.87 220.20 559.41 218.32 559.99 216.45 L 560.16 216.05 C 560.37 215.56 560.78 214.60 560.99 214.11 L 561.06 213.77 C 562.99 209.07 564.74 204.30 566.02 199.38 L 566.18 199.01 C 566.36 198.52 566.74 197.53 566.92 197.03 L 567.12 196.07 C 567.36 195.60 567.84 194.66 568.08 194.19 L 568.14 193.71 C 570.08 189.08 571.76 184.35 573.08 179.51 M 576.59 195.99 C 576.10 198.01 574.97 200.01 575.24 202.14 C 579.55 202.01 584.08 202.87 588.26 201.58 L 587.36 201.63 L 586.91 200.59 C 586.34 197.02 585.49 193.43 583.65 190.27 L 583.50 190.06 L 584.03 189.31 L 583.65 188.31 L 582.78 188.11 L 582.92 187.05 C 582.45 185.21 581.88 183.38 581.28 181.58 C 579.08 186.15 578.21 191.21 576.59 195.99 Z" />
<path fill="#000000" opacity="1.00" d=" M 666.90 183.33 C 669.74 178.76 674.35 175.45 679.51 174.00 C 683.77 173.34 688.11 173.34 692.38 173.94 L 693.03 174.26 C 694.52 175.05 696.10 176.02 697.88 175.87 L 699.38 175.82 C 698.60 178.71 697.83 181.61 696.77 184.42 C 696.22 184.35 695.13 184.20 694.59 184.13 L 694.00 183.75 C 692.67 182.63 691.00 182.12 689.32 181.95 L 688.06 181.71 C 686.74 181.13 685.25 180.94 683.95 181.60 L 683.33 181.81 C 680.12 182.35 677.54 184.45 675.97 187.24 L 675.83 187.49 C 672.85 193.71 672.65 201.15 675.08 207.59 L 675.42 208.46 C 675.43 208.50 675.46 208.57 675.48 208.61 L 675.90 209.49 C 677.05 211.62 678.80 213.53 681.19 214.23 C 686.70 215.79 692.44 214.27 697.78 212.76 C 697.63 215.38 698.16 218.18 697.22 220.68 C 687.59 224.40 674.98 224.02 667.95 215.52 L 667.87 215.29 C 667.70 214.24 667.19 213.42 666.32 212.83 L 665.99 212.50 C 662.69 203.11 662.52 192.41 666.90 183.33 Z" />
<path fill="#000000" opacity="1.00" d=" M 702.40 174.13 C 705.99 174.09 709.58 174.09 713.18 174.07 C 714.26 176.21 715.34 178.35 716.47 180.47 C 716.49 180.51 716.53 180.58 716.55 180.62 L 717.50 182.43 C 717.51 182.46 717.55 182.53 717.57 182.57 L 718.48 184.38 C 718.49 184.41 718.52 184.47 718.53 184.50 L 718.90 185.31 C 720.17 188.39 721.65 191.38 723.27 194.30 C 727.08 187.76 730.18 180.83 733.83 174.20 C 737.16 174.20 740.48 174.18 743.81 174.15 C 740.29 181.63 735.98 188.70 732.15 196.01 C 730.56 199.21 727.93 202.20 728.15 205.98 C 728.08 211.35 728.22 216.72 728.15 222.08 C 724.99 222.10 721.83 222.10 718.67 222.09 C 718.60 216.70 718.79 211.30 718.67 205.91 C 718.75 204.24 718.01 202.73 717.15 201.36 L 716.59 200.43 C 716.57 200.40 716.52 200.33 716.50 200.29 L 715.49 198.62 C 715.48 198.59 715.44 198.54 715.43 198.51 L 715.09 197.83 C 713.38 193.83 711.30 190.01 708.95 186.35 L 708.47 185.55 C 708.45 185.52 708.42 185.46 708.40 185.43 C 706.29 181.72 704.50 177.84 702.40 174.13 Z" />
<path fill="#000000" opacity="1.00" d=" M 435.73 174.23 C 438.91 174.19 442.10 174.19 445.29 174.21 C 445.64 185.64 444.64 197.15 445.82 208.53 L 445.87 208.71 C 447.44 215.27 455.64 216.11 460.86 213.72 C 464.63 211.66 465.14 206.89 465.24 203.03 C 465.25 193.43 465.22 183.82 465.24 174.22 C 468.34 174.52 472.05 173.21 474.74 175.18 C 475.31 177.07 475.01 179.09 475.06 181.04 C 474.76 191.18 475.67 201.38 474.11 211.46 L 474.11 211.47 C 472.40 214.60 470.53 217.87 467.36 219.73 C 458.50 224.79 446.35 223.91 438.86 216.73 L 438.75 216.57 C 436.99 212.98 435.64 209.09 435.72 205.03 C 435.69 194.77 435.74 184.50 435.73 174.23 Z" />
<path fill="#000000" opacity="1.00" d=" M 520.60 174.24 C 532.52 174.16 544.45 174.17 556.38 174.24 C 556.37 176.94 556.37 179.63 556.37 182.33 C 552.03 182.32 547.70 182.32 543.37 182.37 C 543.25 195.61 543.34 208.85 543.32 222.09 C 540.11 222.10 536.91 222.10 533.71 222.09 C 533.70 208.85 533.78 195.61 533.66 182.37 C 529.31 182.32 524.95 182.32 520.60 182.34 C 520.60 179.64 520.60 176.94 520.60 174.24 Z" />
<path fill="#000000" opacity="1.00" d=" M 610.90 174.25 C 614.96 174.18 619.02 174.18 623.08 174.19 C 624.02 175.62 624.99 177.04 625.91 178.50 L 625.94 178.56 C 627.20 180.95 628.53 183.31 629.86 185.67 L 629.97 185.89 C 630.55 187.47 631.44 188.92 632.58 190.18 L 632.82 190.50 C 635.00 194.56 637.19 198.63 639.82 202.43 L 639.88 202.55 C 641.27 205.40 642.84 208.16 644.78 210.68 C 644.28 198.52 644.23 186.35 644.33 174.18 C 647.27 174.18 650.21 174.21 653.16 174.27 C 653.12 190.20 653.17 206.13 653.14 222.06 C 648.99 221.85 644.55 222.79 640.60 221.58 C 637.16 217.19 635.22 211.83 631.90 207.34 L 631.42 206.59 C 631.40 206.56 631.37 206.50 631.35 206.48 C 630.59 205.24 629.87 204.00 629.22 202.72 C 627.74 199.48 625.87 196.45 624.01 193.42 L 623.87 193.15 C 623.19 191.62 622.45 190.11 621.46 188.76 L 620.69 187.65 C 620.18 186.91 619.67 186.17 619.16 185.44 C 619.54 197.66 619.59 209.87 619.54 222.10 C 616.66 222.09 613.79 222.09 610.92 222.08 C 610.89 206.14 610.94 190.19 610.90 174.25 Z" />
</g>
</svg>
